<svg width="92" height="22" viewBox="0 0 92 22" fill="none" xmlns="http://www.w3.org/2000/svg">
    <path d="M29.92 15.5V6.044H26.224V4.908H34.816V6.044H31.12V15.5H29.92ZM34.8331 15.5V7.5H36.0331V9.468C36.0758 9.32933 36.1558 9.148 36.2731 8.924C36.4011 8.68933 36.5825 8.45467 36.8171 8.22C37.0518 7.98533 37.3451 7.788 37.6971 7.628C38.0598 7.45733 38.4865 7.372 38.9771 7.372H39.0571V8.572H38.9131C38.3158 8.572 37.7985 8.73733 37.3611 9.068C36.9345 9.388 36.6038 9.80933 36.3691 10.332C36.1451 10.844 36.0331 11.3933 36.0331 11.98V15.5H34.8331ZM43.3616 15.628C42.583 15.628 41.9003 15.4467 41.3136 15.084C40.7376 14.7107 40.2896 14.2093 39.9696 13.58C39.6496 12.9507 39.4896 12.2573 39.4896 11.5C39.4896 10.732 39.6496 10.0387 39.9696 9.42C40.2896 8.79067 40.7376 8.29467 41.3136 7.932C41.9003 7.55867 42.583 7.372 43.3616 7.372C44.023 7.372 44.5883 7.5 45.0576 7.756C45.5376 8.012 45.927 8.35867 46.2256 8.796V7.5H47.4256V15.5H46.2256V14.22C45.927 14.6467 45.5376 14.988 45.0576 15.244C44.5883 15.5 44.023 15.628 43.3616 15.628ZM43.5216 14.54C44.119 14.54 44.6203 14.4013 45.0256 14.124C45.4416 13.8467 45.7563 13.4787 45.9696 13.02C46.183 12.5507 46.2896 12.044 46.2896 11.5C46.2896 10.9453 46.183 10.4387 45.9696 9.98C45.7563 9.52133 45.4416 9.15333 45.0256 8.876C44.6203 8.59867 44.119 8.46 43.5216 8.46C42.935 8.46 42.4283 8.59867 42.0016 8.876C41.575 9.15333 41.2496 9.52133 41.0256 9.98C40.8016 10.4387 40.6896 10.9453 40.6896 11.5C40.6896 12.044 40.8016 12.5507 41.0256 13.02C41.2496 13.4787 41.575 13.8467 42.0016 14.124C42.4283 14.4013 42.935 14.54 43.5216 14.54ZM51.5173 15.5L48.3813 7.5H49.6933L52.2213 14.22L54.7333 7.5H56.0453L52.9253 15.5H51.5173ZM60.4051 15.628C59.5945 15.628 58.8851 15.4467 58.2771 15.084C57.6691 14.7107 57.1945 14.2093 56.8531 13.58C56.5225 12.9507 56.3571 12.2573 56.3571 11.5C56.3571 10.732 56.5171 10.0387 56.8371 9.42C57.1571 8.79067 57.6158 8.29467 58.2131 7.932C58.8105 7.55867 59.5145 7.372 60.3251 7.372C61.1465 7.372 61.8505 7.55867 62.4371 7.932C63.0345 8.29467 63.4931 8.79067 63.8131 9.42C64.1331 10.0387 64.2931 10.732 64.2931 11.5V11.98H57.5891C57.6531 12.4493 57.8025 12.8813 58.0371 13.276C58.2825 13.66 58.6078 13.9693 59.0131 14.204C59.4185 14.428 59.8878 14.54 60.4211 14.54C60.9865 14.54 61.4611 14.4173 61.8451 14.172C62.2291 13.916 62.5278 13.5907 62.7411 13.196H64.0531C63.7758 13.9107 63.3331 14.4973 62.7251 14.956C62.1278 15.404 61.3545 15.628 60.4051 15.628ZM57.6051 10.86H63.0451C62.9385 10.1773 62.6505 9.60667 62.1811 9.148C61.7118 8.68933 61.0931 8.46 60.3251 8.46C59.5571 8.46 58.9385 8.68933 58.4691 9.148C58.0105 9.60667 57.7225 10.1773 57.6051 10.86ZM65.5994 15.5V4.3H66.7994V15.5H65.5994ZM76.7349 15.628C75.6575 15.628 74.7295 15.388 73.9509 14.908C73.1829 14.4173 72.5909 13.7613 72.1749 12.94C71.7589 12.1187 71.5509 11.2067 71.5509 10.204C71.5509 9.20133 71.7642 8.28933 72.1909 7.468C72.6175 6.64667 73.2202 5.996 73.9989 5.516C74.7882 5.02533 75.7109 4.78 76.7669 4.78C77.9082 4.78 78.8949 5.06267 79.7269 5.628C80.5695 6.18267 81.1882 6.90267 81.5829 7.788H80.2709C79.9509 7.22267 79.5029 6.77467 78.9269 6.444C78.3615 6.11333 77.6735 5.948 76.8629 5.948C76.0095 5.948 75.2735 6.14 74.6549 6.524C74.0362 6.89733 73.5615 7.404 73.2309 8.044C72.9109 8.684 72.7509 9.404 72.7509 10.204C72.7509 10.9933 72.9109 11.7133 73.2309 12.364C73.5509 13.004 74.0149 13.516 74.6229 13.9C75.2415 14.2733 75.9775 14.46 76.8309 14.46C77.4709 14.46 78.0735 14.3213 78.6389 14.044C79.2149 13.7667 79.6789 13.3667 80.0309 12.844C80.3935 12.3213 80.5749 11.692 80.5749 10.956H76.7029V9.868H81.6789V15.5H80.5749V13.628C80.3509 13.9693 80.0629 14.2947 79.7109 14.604C79.3589 14.9027 78.9322 15.148 78.4309 15.34C77.9402 15.532 77.3749 15.628 76.7349 15.628ZM86.8414 15.628C86.0307 15.628 85.3267 15.4467 84.7294 15.084C84.132 14.7107 83.6734 14.2093 83.3534 13.58C83.0334 12.9507 82.8734 12.2573 82.8734 11.5C82.8734 10.732 83.0334 10.0387 83.3534 9.42C83.6734 8.79067 84.132 8.29467 84.7294 7.932C85.3267 7.55867 86.0307 7.372 86.8414 7.372C87.6627 7.372 88.3667 7.55867 88.9534 7.932C89.5507 8.29467 90.0094 8.79067 90.3294 9.42C90.6494 10.0387 90.8094 10.732 90.8094 11.5C90.8094 12.2573 90.6494 12.9507 90.3294 13.58C90.0094 14.2093 89.5507 14.7107 88.9534 15.084C88.3667 15.4467 87.6627 15.628 86.8414 15.628ZM86.8414 14.54C87.4387 14.54 87.94 14.4013 88.3454 14.124C88.7614 13.8467 89.076 13.4787 89.2894 13.02C89.5027 12.5507 89.6094 12.044 89.6094 11.5C89.6094 10.9453 89.5027 10.4387 89.2894 9.98C89.076 9.52133 88.7614 9.15333 88.3454 8.876C87.94 8.59867 87.4387 8.46 86.8414 8.46C86.2547 8.46 85.7534 8.59867 85.3374 8.876C84.9214 9.15333 84.6067 9.52133 84.3934 9.98C84.18 10.4387 84.0734 10.9453 84.0734 11.5C84.0734 12.044 84.18 12.5507 84.3934 13.02C84.6067 13.4787 84.9214 13.8467 85.3374 14.124C85.7534 14.4013 86.2547 14.54 86.8414 14.54Z" fill="black"/>
    <path fill-rule="evenodd" clip-rule="evenodd" d="M25.8608 0.5H26C25.4132 0.922357 24.7666 1.26614 24.1599 1.66885C21.4246 3.4565 18.8585 5.51918 16.71 7.96492C15.3573 9.51684 14.1637 11.2259 13.3879 13.1314C12.5524 15.1155 12.2441 17.3255 12.6021 19.4471C12.7116 20.1445 12.9403 20.8223 13.1194 21.5C9.80719 18.3962 6.49503 15.2923 3.18286 12.1885C2.12854 11.1768 1.03443 10.2044 0 9.17306C8.43458 6.34425 16.8891 3.57437 25.3236 0.765201C25.5027 0.696445 25.6817 0.598223 25.8608 0.5Z" fill="#5BC0F8"/>
</svg>
